<svg id="Calque_1" data-name="Calque 1" xmlns="http://www.w3.org/2000/svg" viewBox="0 0 996 181.46"><g id="b5a93e15-ef7c-9d7a-680b-cdb17474f15f"><path d="M264.88,129h0q-20.08,0-33.63-13.54h0q-13.55-13.55-13.55-33.82h0q0-19.89,13.55-33.53h0q13.55-13.55,33.63-13.55h0q20.17,0,34.64,12.63h0L287,60.86h0a35,35,0,0,0-22.11-7.55h0q-12.72.09-20.55,8h0q-7.74,7.84-7.74,20.09h0q0,13.17,7.83,20.91h0q7.83,7.74,20.55,7.74h0q10.23,0,15.66-4h0V89.89L268.1,90V72.29h31.42v44.13h0Q285.15,129,264.88,129Zm68.45-63v7h0A22.37,22.37,0,0,1,349.83,66h0a36.06,36.06,0,0,1,5.8.46h0L352.87,83.9h0q-3-2.78-8.76-3h0q-6.45.47-10.78,9.31h0V129H315.74V67.87Zm62.38,63.67h0q-13.72,0-22.94-9.22h0q-9.12-9.21-9.12-22.85h0q0-13.73,9.12-22.94h0q9.21-9.21,22.94-9.21h0q13.73,0,22.94,9.21h0q9.21,9.21,9.22,22.94h0q0,13.74-9.22,22.85h0q-9.21,9.23-22.94,9.22Zm0-15.21h0a15.08,15.08,0,0,0,11.61-4.88h0a16.78,16.78,0,0,0,4.51-12h0a16.76,16.76,0,0,0-4.51-12h0a15.19,15.19,0,0,0-11.7-4.89h0A15.09,15.09,0,0,0,384,85.56h0a17,17,0,0,0-4.42,12h0a17,17,0,0,0,4.42,12h0A15.19,15.19,0,0,0,395.71,114.39Zm82.09-7.73h0V65.93h17.6v63H477.8v-5.71h0A21.83,21.83,0,0,1,462.69,129h0q-12,0-18.24-7.28h0A24.61,24.61,0,0,1,438.09,105h0V65.93h17.69v34.64h0q0,6.27,3.13,9.77h0q3.13,3.5,9.49,3.69h0Q473.93,113.66,477.8,106.66ZM528,155.49l-17.6-.1V67.87L528,65.93V71h0q7.1-5.07,13.91-5.07h0q14.46,0,22.94,9.49h0a31.67,31.67,0,0,1,8.57,22h0a31.63,31.63,0,0,1-8.57,22h0Q556.4,129,541.93,129h0q-9.49-.64-13.91-5.16h0Zm0-63.76h0V102h0q1.29,10.59,13.26,12.43h0q15.12-1.19,17.05-15.66h0Q557.68,81,541.28,80.4h0Q529.31,82.34,528,91.73Zm86.42,37.87h0q-13.73,0-22.85-9.22h0a31,31,0,0,1-9.21-22.85h0q0-13.73,9.21-22.94h0q9.12-9.21,22.85-9.21h0q13.72,0,22.94,9.21h0q9.21,9.21,9.21,22.94h0q0,13.74-9.21,22.85h0q-9.21,9.23-22.94,9.22Zm0-15.21h0a14.91,14.91,0,0,0,11.61-4.88h0a16.78,16.78,0,0,0,4.51-12h0a16.76,16.76,0,0,0-4.51-12h0a15,15,0,0,0-11.7-4.89h0a15.09,15.09,0,0,0-11.61,4.89h0a17,17,0,0,0-4.42,12h0a17,17,0,0,0,4.42,12h0A15.19,15.19,0,0,0,614.44,114.39ZM676,88.69h0V129H658.3V67.87L676,65.93v5.62h0Q681.89,66,691.1,66h0q11.88,0,18.24,7.19h0Q716.26,66,730.07,66h0q12,0,18.33,7.19h0A24.93,24.93,0,0,1,754.67,90h0v39h-17.6V94.31h0q0-6.27-2.85-9.77h0Q731.35,81.13,725,81h0q-5.25.38-9,6.91h0a21.61,21.61,0,0,0-.37,4h0V129H698V94.31h0q0-6.27-2.86-9.77h0q-2.85-3.41-9.21-3.59h0C682.07,81.2,678.75,83.77,676,88.69Zm102.36-4.42-6.91-10.69h0q12-7.56,27.73-7.56h0q11.34,0,17.88,6.27h0q6.63,6.36,6.63,18.89h0V129h-17.6v-5h0q-7.74,5-13.91,5h0q-12.52,0-18.89-5.34h0Q767,118.27,767,108.87h0a23.4,23.4,0,0,1,6-15.76h0q5.91-6.92,19.17-6.91h0q6.17,0,13.91,3.78h0V88h0q-.18-6.9-10.13-7.55h0q-11.34,0-17.6,3.78Zm27.73,25.79h0V103h0q-2.49-4.89-12-4.88h0q-11.33,1.29-12,8.84h0q.64,7.47,12,8.11h0Q803.59,115,806.08,110.06Zm51-21.09h0v40H839.43V67.87l17.69-1.94v5.71h0A22.1,22.1,0,0,1,872.23,66h0q12,0,18.25,7.19h0A25,25,0,0,1,896.74,90h0v39H879.15V94.31h0q0-6.27-3.14-9.77h0q-3.22-3.41-9.58-3.59h0Q861,81.33,857.12,89Zm72,40H911.58v-63h17.59Zm-18.24-78h0a8.5,8.5,0,0,0,2.49,6.27h0a9.65,9.65,0,0,0,7,2.49h0a9.52,9.52,0,0,0,6.91-2.49h0a8.5,8.5,0,0,0,2.49-6.27h0a8.78,8.78,0,0,0-2.49-6.35h0A9.58,9.58,0,0,0,920.24,42h0a9.21,9.21,0,0,0-6.82,2.58h0A8.78,8.78,0,0,0,910.93,50.91Zm41.74,33.36-6.91-10.69h0q12-7.56,27.73-7.56h0q11.34,0,18,6.27h0Q998,78.65,998,91.18h0V129H980.4v-5h0q-7.65,5-13.82,5h0q-12.62,0-18.89-5.34h0q-6.35-5.34-6.35-14.74h0a23.36,23.36,0,0,1,6-15.76h0q5.89-6.92,19.25-6.91h0q6.09,0,13.82,3.78h0V88h0q-.09-6.9-10-7.55h0q-11.34,0-17.69,3.78Zm27.73,25.79h0V103h0q-2.49-4.89-12-4.88h0q-11.32,1.29-12,8.84h0q.64,7.47,12,8.11h0Q977.92,115,980.4,110.06Z" transform="translate(-2 -4.27)" style="fill:#e6391f"/></g><g id="_9269873b-566f-aa23-fe77-697bbc54db67" data-name="9269873b-566f-aa23-fe77-697bbc54db67"><path d="M92.73,185.73A90.41,90.41,0,0,0,183.46,95,90.41,90.41,0,0,0,92.73,4.27,90.41,90.41,0,0,0,2,95a90.41,90.41,0,0,0,90.73,90.73Zm5.21-15.41a41.28,41.28,0,0,1-5.21.22c-2.39,0-4.77-.22-7.16-.44a131.73,131.73,0,0,1-17.15-38.85h38.42a18.85,18.85,0,0,0,6.51,8.25A132.25,132.25,0,0,1,97.94,170.32ZM118.56,166a137.18,137.18,0,0,0,10-23.23,18.85,18.85,0,0,0,13.67-11.5h16.71A77.4,77.4,0,0,1,118.56,166Zm49.49-71a83.52,83.52,0,0,1-2.82,20.84H141.79a20,20,0,0,0-6.08-7.38q.64-7.17.65-14.33a151.44,151.44,0,0,0-1.3-20H165A66.38,66.38,0,0,1,168.05,95Zm-9.12-36.25H132.45a145.83,145.83,0,0,0-12.59-34.08A76.88,76.88,0,0,1,158.93,58.75ZM121.17,94.13c0,3.69-.22,7.38-.44,11.07a18.78,18.78,0,0,0-13.46,10.64H65.38a150.94,150.94,0,0,1-1.52-19.75,119.38,119.38,0,0,1,.65-12.38,19.58,19.58,0,0,0,13-9.55h42.32A151.44,151.44,0,0,1,121.17,94.13ZM87.09,19.9a50.17,50.17,0,0,1,5.64-.22,64.36,64.36,0,0,1,6.51.22,131.73,131.73,0,0,1,17.15,38.85H78.62a20.72,20.72,0,0,0-6.73-9.33A140.55,140.55,0,0,1,87.09,19.9ZM66.47,24.24a159.69,159.69,0,0,0-9.55,21.7A19.23,19.23,0,0,0,42.59,58.53H26.74A76.31,76.31,0,0,1,66.47,24.24ZM17.41,95a73.44,73.44,0,0,1,3-20.84H44.11a21.49,21.49,0,0,0,5.43,6.3c-.44,5.21-.87,10.42-.87,15.63A148.23,148.23,0,0,0,50,115.84H20.45A67.33,67.33,0,0,1,17.41,95Zm35.16,36a150.34,150.34,0,0,0,12.59,34.08A76,76,0,0,1,26.53,131Z" transform="translate(-2 -4.27)" style="fill:#fad6d7"/></g></svg>