<svg id="Calque_1" data-name="Calque 1" xmlns="http://www.w3.org/2000/svg" viewBox="0 0 196.13 196.13"><g id="_9269873b-566f-aa23-fe77-697bbc54db67" data-name="9269873b-566f-aa23-fe77-697bbc54db67"><path d="M100.07,198.13a97.72,97.72,0,0,0,98.06-98.06A97.72,97.72,0,0,0,100.07,2,97.72,97.72,0,0,0,2,100.07a97.72,97.72,0,0,0,98.07,98.06Zm5.63-16.66a44.27,44.27,0,0,1-5.63.24c-2.58,0-5.17-.24-7.75-.47a142.69,142.69,0,0,1-18.53-42h41.53a20.26,20.26,0,0,0,7,8.91A142.59,142.59,0,0,1,105.7,181.47ZM128,176.78a147.39,147.39,0,0,0,10.8-25.1,20.4,20.4,0,0,0,14.78-12.43h18.06A83.66,83.66,0,0,1,128,176.78Zm53.49-76.71a89.74,89.74,0,0,1-3.05,22.52H153.09a21.53,21.53,0,0,0-6.57-8q.71-7.74.7-15.48a163.8,163.8,0,0,0-1.41-21.59h32.38A71.62,71.62,0,0,1,181.47,100.07Zm-9.85-39.18H143a157.85,157.85,0,0,0-13.61-36.84A83.1,83.1,0,0,1,171.62,60.89ZM130.8,99.13c0,4-.24,8-.47,12a20.33,20.33,0,0,0-14.55,11.5H70.51a163.26,163.26,0,0,1-1.65-21.35,127.26,127.26,0,0,1,.71-13.37A21.17,21.17,0,0,0,83.64,77.54h45.75A163.8,163.8,0,0,1,130.8,99.13ZM94,18.89a56.15,56.15,0,0,1,6.1-.23c2.34,0,4.69,0,7,.23a142.78,142.78,0,0,1,18.54,42H84.82A22.4,22.4,0,0,0,77.54,50.8,152.29,152.29,0,0,1,94,18.89ZM71.68,23.58A173.28,173.28,0,0,0,61.36,47,20.77,20.77,0,0,0,45.87,60.65H28.75A82.39,82.39,0,0,1,71.68,23.58Zm-53,76.49a79.29,79.29,0,0,1,3.28-22.53H47.51a23.27,23.27,0,0,0,5.87,6.81c-.47,5.63-.94,11.26-.94,16.89a160.28,160.28,0,0,0,1.41,21.35H21.94A72.88,72.88,0,0,1,18.66,100.07Zm38,38.94a161.86,161.86,0,0,0,13.61,36.83A82.15,82.15,0,0,1,28.51,139Z" transform="translate(-2 -2)" style="fill:#e52c12"/></g></svg>